<svg xmlns="http://www.w3.org/2000/svg" width="40" height="40" viewBox="0 0 40 40">
  <g id="Group_6325" data-name="Group 6325" transform="translate(-560 -92)">
    <g id="Ellipse_14" data-name="Ellipse 14" transform="translate(560 92)" fill="#fcfcfc" stroke="#fd8094" stroke-width="1">
      <circle cx="20" cy="20" r="20" stroke="none"/>
      <circle cx="20" cy="20" r="19.5" fill="none"/>
    </g>
    <g id="delete_7606261" transform="translate(569.04 -84.601)">
      <g id="Layer2" transform="translate(2.158 190.963)">
        <g id="Group_6323" data-name="Group 6323" transform="translate(0 11.276) rotate(-90)">
          <path id="Path_8971" data-name="Path 8971" d="M11.276,13.914V5.579a1.689,1.689,0,0,0-.508-1.208L6.8.483A1.692,1.692,0,0,0,4.424.49L.205,4.667A.691.691,0,0,0,0,5.159v8.755A1.691,1.691,0,0,0,1.691,15.6H9.584A1.691,1.691,0,0,0,11.276,13.914ZM1.127,5.34l4.09-4.05a.564.564,0,0,1,.791,0L9.979,5.176a.564.564,0,0,1,.169.4v8.335a.564.564,0,0,1-.564.563H1.691a.564.564,0,0,1-.564-.563Z" transform="translate(0)" fill="#f16178" fill-rule="evenodd"/>
        </g>
        <path id="Path_8972" data-name="Path 8972" d="M15.521,198.868l-1.856,1.856a.563.563,0,1,0,.8.8l1.856-1.856,1.856,1.856a.563.563,0,1,0,.8-.8l-1.856-1.856,1.856-1.856a.563.563,0,0,0-.8-.8l-1.856,1.856-1.856-1.856a.563.563,0,0,0-.8.8Z" transform="translate(-7.109 -193.184)" fill="#f16178" fill-rule="evenodd"/>
      </g>
    </g>
  </g>
</svg>
