<svg xmlns="http://www.w3.org/2000/svg" width="34" height="34" viewBox="0 0 34 34">
  <g id="Group_6314" data-name="Group 6314" transform="translate(-560 -92)">
    <g id="Ellipse_14" data-name="Ellipse 14" transform="translate(560 92)" fill="#fcfcfc" stroke="#e6e6e6" stroke-width="1">
      <circle cx="17" cy="17" r="17" stroke="none"/>
      <circle cx="17" cy="17" r="16.5" fill="none"/>
    </g>
    <g id="Iconly_Light-Outline_Delete" data-name="Iconly/Light-Outline/Delete" transform="translate(567.701 100.405)">
      <g id="Delete" transform="translate(3 2)">
        <path id="Combined-Shape" d="M11.182,4.586a.513.513,0,0,1,.47.551c0,.046-.374,4.627-.587,6.548a2.031,2.031,0,0,1-2.109,1.94c-.91.016-1.787.025-2.645.025-.925,0-1.826-.01-2.718-.029a2.025,2.025,0,0,1-2.06-1.931C1.318,9.752.95,5.184.946,5.138a.511.511,0,0,1,.469-.551.526.526,0,0,1,.551.469c0,.03.153,1.9.316,3.741l.033.368c.083.917.166,1.8.234,2.413A1,1,0,0,0,3.614,12.6c1.706.036,3.447.038,5.324,0a1.021,1.021,0,0,0,1.11-1.029c.212-1.907.58-6.471.584-6.518A.523.523,0,0,1,11.182,4.586ZM7.743,0A1.388,1.388,0,0,1,9.082,1.028l.173.861a.614.614,0,0,0,.59.493h2.24a.512.512,0,1,1,0,1.024H.512a.512.512,0,1,1,0-1.024H2.751l.069,0a.616.616,0,0,0,.522-.488l.166-.83A1.4,1.4,0,0,1,4.854,0Zm0,1.024H4.854a.361.361,0,0,0-.349.268l-.159.8a1.624,1.624,0,0,1-.087.292H8.339a1.629,1.629,0,0,1-.087-.292l-.166-.83A.358.358,0,0,0,7.743,1.024Z" transform="translate(0 0)" fill="#aaa" fill-rule="evenodd"/>
      </g>
    </g>
  </g>
</svg>
