<svg xmlns="http://www.w3.org/2000/svg" width="34" height="34" viewBox="0 0 34 34">
  <g id="Group_6312" data-name="Group 6312" transform="translate(-520 -92)">
    <g id="Ellipse_14" data-name="Ellipse 14" transform="translate(520 92)" fill="#fcfcfc" stroke="#25245e" stroke-width="1">
      <circle cx="17" cy="17" r="17" stroke="none"/>
      <circle cx="17" cy="17" r="16.5" fill="none"/>
    </g>
    <g id="Iconly_Light-Outline_Upload" data-name="Iconly/Light-Outline/Upload" transform="translate(530 101.704)">
      <g id="Upload" transform="translate(0 0)">
        <path id="Combined-Shape" d="M3.847,4.872a.537.537,0,0,1,0,1.075H3.179a2.1,2.1,0,0,0-2.1,2.1v3.494a2.105,2.105,0,0,0,2.1,2.1h7.976a2.106,2.106,0,0,0,2.1-2.1v-3.5a2.1,2.1,0,0,0-2.1-2.1h-.676a.537.537,0,1,1,0-1.075h.676a3.174,3.174,0,0,1,3.17,3.171v3.5a3.182,3.182,0,0,1-3.178,3.178H3.179A3.182,3.182,0,0,1,0,11.543V8.049A3.182,3.182,0,0,1,3.179,4.872Zm3.7-4.71,2.09,2.1a.537.537,0,1,1-.761.758L7.7,1.842V9.707H6.629V1.842L5.458,3.018A.537.537,0,0,1,4.7,2.26L6.786.162A.552.552,0,0,1,7.547.162Z" transform="translate(0 -0.009)" fill="#25245e" fill-rule="evenodd"/>
      </g>
    </g>
  </g>
</svg>
