<svg xmlns="http://www.w3.org/2000/svg" width="34" height="34" viewBox="0 0 34 34">
  <g id="Group_6313" data-name="Group 6313" transform="translate(-560 -92)">
    <g id="Ellipse_14" data-name="Ellipse 14" transform="translate(560 92)" fill="#fcfcfc" stroke="#25245e" stroke-width="1">
      <circle cx="17" cy="17" r="17" stroke="none"/>
      <circle cx="17" cy="17" r="16.5" fill="none"/>
    </g>
    <g id="Iconly_Light-Outline_Video" data-name="Iconly/Light-Outline/Video" transform="translate(569.842 103.949)">
      <g id="Video" transform="translate(0 0)">
        <path id="Combined-Shape" d="M4.15,0h.827l2.15,0h.387a2.842,2.842,0,0,1,3.041,2.558q0,.024,0,.266l1.415-1.158A1.362,1.362,0,0,1,14.2,2.728l-.008,5.008a1.36,1.36,0,0,1-2.225,1.051l-1.4-1.164v.059a2.709,2.709,0,0,1-.722,1.951,2.877,2.877,0,0,1-2.018.927l-.21,0H5.923l-2.35,0H3.042q-.108.008-.217.008A2.822,2.822,0,0,1,.01,8.012V7.1q0-.039,0-.081V6.651Q0,6.6,0,6.545V5.934q0-.068,0-.14V3.125Q0,3,0,2.878A2.694,2.694,0,0,1,.723.934,2.879,2.879,0,0,1,2.74,0l.142,0H4.15Zm3.4,1.027-2.81,0H2.778a1.859,1.859,0,0,0-1.3.6,1.7,1.7,0,0,0-.452,1.23V5.487q0,.087,0,.173v.814q0,.076,0,.149V6.9q0,.067,0,.131v.351c0,.316,0,.521,0,.56A1.807,1.807,0,0,0,3,9.535h.673l.892,0H7.785a1.858,1.858,0,0,0,1.3-.6,1.694,1.694,0,0,0,.454-1.227V7.7h0v-3.3q0-.08,0-.158V3.666q0-.067,0-.131v-.35c0-.1,0-.2,0-.276V2.772c0-.078,0-.128,0-.145A1.816,1.816,0,0,0,7.551,1.028ZM12.62,2.464l-2.059,1.68q0,.126,0,.261V6.114h0L12.612,8a.34.34,0,0,0,.555-.262l.008-5.008a.339.339,0,0,0-.555-.262Z" transform="translate(0 0)" fill="#25245e" fill-rule="evenodd"/>
      </g>
    </g>
  </g>
</svg>
